Coordinates
version=1
nRows=13
nColumns=40
inDegrees=yes

Units are S.I. units (second, meters, Newtons, ...)
Angles are in degrees.

endheader
time	pelvis_tilt	pelvis_list	pelvis_rotation	pelvis_tx	pelvis_ty	pelvis_tz	hip_flexion_r	hip_adduction_r	hip_rotation_r	knee_angle_r	knee_angle_r_beta	ankle_angle_r	subtalar_angle_r	mtp_angle_r	hip_flexion_l	hip_adduction_l	hip_rotation_l	knee_angle_l	knee_angle_l_beta	ankle_angle_l	subtalar_angle_l	mtp_angle_l	lumbar_extension	lumbar_bending	lumbar_rotation	arm_flex_r	arm_add_r	arm_rot_r	elbow_flex_r	pro_sup_r	wrist_flex_r	wrist_dev_r	arm_flex_l	arm_add_l	arm_rot_l	elbow_flex_l	pro_sup_l	wrist_flex_l	wrist_dev_l
     49.05500000	     -4.26131269	     -4.52491864	      6.50055160	      0.94673752	      0.92045612	      0.49809607	     -2.39975544	      3.04983285	    -15.10777901	     13.96674917	     13.96674917	     18.34862438	      1.37834263	     -1.97951680	     26.92365516	     -5.76568681	      5.61222365	     26.21009573	     26.21009573	      6.34493013	    -12.77513456	      3.24447920	     -7.14713191	      3.93018205	      4.60233259	     58.77089368	    -16.26158220	     -3.18861605	     68.33764778	     44.96414303	      0.00000000	      0.00000000	    -11.79767328	    -11.16149451	     19.99243676	     33.48581030	     43.50958914	      0.00000000	      0.00000000
     49.07685714	     -4.29034502	     -4.57865991	      6.07867288	      0.94792850	      0.92042809	      0.49347034	     -2.76503497	      2.68661376	    -15.10031377	     13.97784303	     13.97784303	     18.34265053	      2.08911940	     -1.95251160	     26.83177395	     -5.56060418	      5.63153914	     26.94616654	     26.94616654	      7.02045683	    -13.52335263	      3.47339246	     -7.12687978	      4.05312698	      4.83301316	     58.45592483	    -16.45236059	     -3.27452355	     67.51723138	     44.99930230	      0.00000000	      0.00000000	    -11.19770448	    -11.52551440	     19.88413417	     33.84575322	     43.55128479	      0.00000000	      0.00000000
     49.09871429	     -4.37244993	     -4.52245866	      5.61289068	      0.94904179	      0.92051010	      0.48877506	     -2.96268087	      2.11057716	    -15.30713606	     14.23015932	     14.23015932	     18.43909990	      3.13426978	     -1.84840880	     26.64814145	     -5.28820074	      5.40473745	     27.44610040	     27.44610040	      7.82867883	    -13.94598113	      4.28044265	     -7.02569953	      4.05483211	      5.00529445	     58.02403992	    -16.44054089	     -3.43182037	     66.15878328	     45.05984357	      0.00000000	      0.00000000	    -10.52816754	    -11.95494099	     19.80282350	     34.36695478	     43.61232894	      0.00000000	      0.00000000
     49.12057143	     -4.40116824	     -4.54316242	      5.15794186	      0.95017879	      0.92065383	      0.48409883	     -3.19819949	      1.69640987	    -15.03561699	     14.43115784	     14.43115784	     18.34753134	      3.38707206	     -1.80439493	     26.37059136	     -5.13482053	      5.08503193	     27.83708230	     27.83708230	      8.37693395	    -14.29754724	      4.20224001	     -7.02970755	      4.14616611	      4.83533921	     57.17900728	    -16.15935134	     -3.34775534	     65.73936310	     45.06859494	      0.00000000	      0.00000000	     -9.88813935	    -12.27627972	     19.71379442	     34.54505573	     43.63823202	      0.00000000	      0.00000000
     49.14242857	     -4.48741000	     -4.45610521	      4.69383464	      0.95123796	      0.92086953	      0.47923364	     -3.10141603	      0.96917580	    -15.27001187	     15.22975462	     15.22975462	     18.65768842	      4.41211962	     -1.26333005	     26.14926878	     -4.87356363	      4.64125691	     28.28027907	     28.28027907	      9.59874556	    -14.13997690	      5.82419074	     -6.91270105	      4.13325219	      4.65932687	     56.59137414	    -15.71332360	     -3.94224048	     63.52392288	     45.18707161	      0.00000000	      0.00000000	     -9.25840776	    -12.62126903	     19.64286019	     34.94538529	     43.77449080	      0.00000000	      0.00000000
     49.16428571	     -4.53567900	     -4.41626799	      4.21920926	      0.95230213	      0.92121553	      0.47438775	     -2.93335611	      0.34276893	    -15.01379329	     16.13470346	     16.13470346	     18.57985585	      4.55227480	     -1.42596147	     25.74679359	     -4.69157406	      4.11766256	     28.40801465	     28.40801465	     10.08782924	    -14.18138315	      5.73348860	     -6.86476995	      4.15693641	      4.65499515	     55.22233730	    -15.77314974	     -3.96875698	     62.68085449	     45.21411360	      0.00000000	      0.00000000	     -8.37209385	    -12.89546962	     19.46202306	     35.18713275	     43.82820445	      0.00000000	      0.00000000
     49.18614286	     -4.56712030	     -4.36198053	      3.74206448	      0.95331648	      0.92169646	      0.46944595	     -2.53153249	     -0.39382908	    -14.77347128	     17.49916945	     17.49916945	     18.41838245	      4.67504468	     -1.82425824	     25.27008363	     -4.49365901	      3.56996650	     28.42081158	     28.42081158	     10.55310479	    -14.13902306	      5.67066565	     -6.82414642	      4.20864951	      4.62469119	     53.64506607	    -15.77598363	     -4.06875633	     61.59798448	     45.25123549	      0.00000000	      0.00000000	     -7.35359201	    -13.09387403	     19.28078063	     35.34326284	     43.88528926	      0.00000000	      0.00000000
     49.20800000	     -4.54537264	     -4.29072233	      3.26413001	      0.95433574	      0.92233433	      0.46442667	     -1.90964490	     -1.21849523	    -14.46706496	     19.35533825	     19.35533825	     18.11949161	      4.54361440	     -2.52717988	     24.68286169	     -4.27822627	      2.97377913	     28.33308716	     28.33308716	     10.99262011	    -14.07261152	      5.61136421	     -6.80840679	      4.25921347	      4.50633636	     51.77088065	    -15.69454117	     -4.18434652	     60.35318852	     45.29264332	      0.00000000	      0.00000000	     -6.23608805	    -13.24081049	     19.10296913	     35.41583800	     43.94165920	      0.00000000	      0.00000000
     49.22985714	     -4.51339725	     -4.22883650	      2.79132779	      0.95527589	      0.92298143	      0.45934552	     -1.05795212	     -2.05788062	    -13.95712803	     21.51192499	     21.51192499	     16.74993974	      3.72247869	     -5.96298089	     24.09734011	     -4.04352495	      2.42871631	     28.25182899	     28.25182899	     11.50361288	    -14.04547392	      5.82339596	     -6.73320756	      4.36176876	      4.36809630	     49.94491960	    -15.25820153	     -5.14270535	     57.88724166	     45.41852803	      0.00000000	      0.00000000	     -4.64165331	    -13.06651344	     18.77137852	     34.33657282	     44.11194178	      0.00000000	      0.00000000
     49.25171429	     -4.41805183	     -4.16951574	      2.30594147	      0.95616468	      0.92363357	      0.45427377	      0.10812632	     -2.92672173	    -13.18458677	     24.29290127	     24.29290127	     14.97885895	      2.21429321	    -10.04938400	     23.42219701	     -3.81467767	      1.86303477	     28.11028945	     28.11028945	     11.91833259	    -13.99628184	      5.74108299	     -6.76709180	      4.49538519	      4.18122674	     47.58060953	    -15.01353899	     -5.41479265	     56.31804144	     45.47959902	      0.00000000	      0.00000000	     -3.26795333	    -13.01955270	     18.32899078	     34.24838056	     44.30130419	      0.00000000	      0.00000000
     49.27357143	     -4.21662459	     -4.00626690	      1.81856925	      0.95696389	      0.92427708	      0.44912910	      1.68408009	     -4.03779920	    -12.41640906	     28.12080383	     28.12080383	     14.05405477	      1.06544417	    -11.15876673	     22.63827688	     -3.46294106	      1.26188693	     27.96752732	     27.96752732	     12.31437268	    -13.99939802	      5.61234552	     -6.96052902	      4.54381228	      3.91856236	     44.93590228	    -14.81771787	     -5.32979077	     54.98153463	     45.51020353	      0.00000000	      0.00000000	     -1.90173750	    -13.15658172	     18.15002104	     34.60189911	     44.35330435	      0.00000000	      0.00000000
     49.29542857	     -4.07987287	     -4.00872230	      1.32125296	      0.95754742	      0.92456083	      0.44430820	      3.55342796	     -4.68308463	    -10.85434104	     31.94304169	     31.94304169	     11.08726857	     -2.48322768	    -16.45989652	     22.06540906	     -3.25098340	      0.87146781	     28.01823437	     28.01823437	     12.71679685	    -14.25898389	      5.60809171	     -6.95185257	      4.77404617	      3.92284780	     42.23696077	    -14.62167847	     -6.06280614	     52.12742063	     45.62882981	      0.00000000	      0.00000000	      0.07039164	    -13.04255818	     18.02490213	     33.92137274	     44.46219217	      0.00000000	      0.00000000
     49.31728571	     -3.83300040	     -3.83422668	      0.80761615	      0.95796935	      0.92452914	      0.43937218	      5.84301835	     -5.74429783	     -9.75965350	     36.86100680	     36.86100680	      9.37068045	     -4.30409853	    -17.52788213	     21.41627995	     -2.84058795	      0.42526640	     28.13979545	     28.13979545	     13.16164554	    -14.50898924	      5.46564490	     -7.18565618	      4.90090967	      3.63738238	     39.25478744	    -14.24968857	     -6.00296576	     50.60263406	     45.66419613	      0.00000000	      0.00000000	      1.62203652	    -13.09240049	     17.84281202	     34.44038812	     44.51702324	      0.00000000	      0.00000000
